<svg xmlns="http://www.w3.org/2000/svg" viewBox="0 0 512 512"><path d="M457.677 54.323c-72.434-72.43-190.29-72.428-262.72 0-69.3 69.3-72.286 180.173-8.983 253.07l-22.13 22.13-22.546-22.548c-5.146-5.144-13.486-5.144-18.634 0L17.03 412.61c-22.706 22.705-22.706 59.65 0 82.36C28.382 506.324 43.297 512 58.21 512c14.912 0 29.826-5.677 41.18-17.03l105.635-105.634c5.145-5.145 5.145-13.488 0-18.634l-22.548-22.547 22.13-22.13c34.8 30.222 78.252 45.342 121.71 45.342 47.57 0 95.144-18.108 131.36-54.323 72.43-72.434 72.43-190.29 0-262.72zM80.757 476.337c-12.434 12.432-32.662 12.435-45.096 0-12.433-12.432-12.433-32.663 0-45.095l58.948-58.947 45.095 45.095-58.947 58.947zm77.58-77.58l-45.095-45.095 18.738-18.738 45.094 45.094-18.737 18.74zM439.044 298.41c-62.158 62.156-163.297 62.158-225.455 0s-62.16-163.297 0-225.455c31.082-31.083 71.896-46.618 112.728-46.618 40.818 0 81.652 15.543 112.726 46.618 62.157 62.158 62.157 163.298 0 225.455z"/><path d="M417.3 94.7c-24.302-24.303-56.615-37.688-90.984-37.688-34.368 0-66.68 13.385-90.983 37.687-24.303 24.3-37.687 56.614-37.687 90.983 0 34.368 13.385 66.68 37.687 90.983 24.302 24.303 56.615 37.688 90.983 37.688 34.37 0 66.68-13.385 90.984-37.688 24.302-24.302 37.688-56.615 37.688-90.983-.002-34.368-13.386-66.68-37.688-90.984zm-18.634 163.333c-19.326 19.327-45.02 29.97-72.35 29.97-27.33 0-53.025-10.643-72.35-29.97-19.327-19.326-29.97-45.02-29.97-72.35 0-27.33 10.643-53.024 29.97-72.35 19.325-19.327 45.02-29.97 72.35-29.97 27.33 0 53.024 10.643 72.35 29.97 19.327 19.326 29.97 45.02 29.97 72.35 0 27.33-10.643 53.025-29.97 72.35z"/><path d="M366.04 172.507h-26.548V145.96c0-7.276-5.9-13.176-13.175-13.176s-13.175 5.9-13.175 13.175v26.547h-26.55c-7.276 0-13.174 5.9-13.174 13.175 0 7.277 5.9 13.175 13.175 13.175h26.55v26.55c0 7.276 5.9 13.174 13.174 13.174s13.175-5.898 13.175-13.174v-26.55h26.548c7.275 0 13.175-5.898 13.175-13.174s-5.898-13.175-13.175-13.175z"/></svg>