<svg xmlns="http://www.w3.org/2000/svg" viewBox="0 0 478.165 478.165" id="in"><path d="M478.165 290.794v176.742H375.638V302.55c0-41.482-14.783-69.674-51.88-69.674-28.372 0-45.108 19.087-52.58 37.456-2.69 6.615-3.506 15.88-3.506 25.024v172.16H165.246s1.375-279.33 0-308.258h102.447v43.692c-.14.36-.438.657-.578 1.056h.578v-1.056c13.687-21 37.934-50.925 92.385-50.925 67.58 0 118.087 44.052 118.087 138.77zM57.997 10.63C22.952 10.63 0 33.62 0 63.944c0 29.507 22.275 53.276 56.682 53.276h.618c35.822 0 58.017-23.768 58.017-53.275-.697-30.324-22.194-53.316-57.32-53.316zM6.117 467.534h102.467V159.24H6.117v308.295z" fill="#FFF"/></svg>
