<svg xmlns="http://www.w3.org/2000/svg" viewBox="0 0 478.165 478.165" id="in"><path d="M442.78 0H35.424C15.86 0 0 15.4 0 34.288v409.688c0 18.828 15.86 34.19 35.424 34.19H442.76c19.586 0 35.405-15.362 35.405-34.19V34.288C478.165 15.4 462.345 0 442.78 0zM145.003 400.244H72.78V184.412h72.224v215.832zm-36.16-245.28h-.48c-24.246 0-39.926-16.695-39.926-37.336 0-21.22 16.158-37.337 40.863-37.337 24.725 0 39.927 16.12 40.385 37.338.02 20.64-15.64 37.337-40.843 37.337zm296.54 245.28h-72.082V284.807c0-29.01-10.598-48.952-36.738-48.952-20.063 0-31.798 13.428-36.958 26.458-1.893 4.423-2.39 10.898-2.39 17.393v120.537H184.95s.916-195.63 0-215.832h72.263v30.604c9.484-14.684 26.658-35.703 65.01-35.703 47.577 0 83.16 30.863 83.16 97.168v123.766zm-148.61-184.532c.06-.22.16-.438.42-.677v.677h-.42z"/></svg>
